<svg width="71" height="38" viewBox="0 0 71 38" fill="none" xmlns="http://www.w3.org/2000/svg">
<path d="M2.37434 9.25329V14.5454H0.591734V1.02729H5.57747C7.05678 1.02729 8.21424 1.40486 9.04984 2.15999C9.89163 2.91513 10.3125 3.91475 10.3125 5.15886C10.3125 6.47106 9.90091 7.48306 9.07769 8.19487C8.26066 8.90048 7.08773 9.25329 5.5589 9.25329H2.37434ZM2.37434 7.79564H5.57747C6.53067 7.79564 7.26104 7.57281 7.76859 7.12716C8.27614 6.67532 8.52991 6.02541 8.52991 5.17743C8.52991 4.37278 8.27614 3.72906 7.76859 3.24627C7.26104 2.76348 6.56471 2.5128 5.6796 2.49423H2.37434V7.79564ZM16.3567 14.7311C14.995 14.7311 13.887 14.2854 13.0329 13.3941C12.1787 12.4966 11.7516 11.299 11.7516 9.80107V9.4854C11.7516 8.48887 11.9404 7.60066 12.318 6.82077C12.7017 6.03469 13.234 5.42192 13.9149 4.98246C14.6019 4.53681 15.3447 4.31398 16.1431 4.31398C17.4491 4.31398 18.4642 4.74416 19.1884 5.60451C19.9126 6.46487 20.2747 7.6966 20.2747 9.29971V10.0146H13.4692C13.494 11.005 13.7818 11.8065 14.3327 12.4193C14.8897 13.0259 15.5954 13.3292 16.4495 13.3292C17.0561 13.3292 17.5698 13.2054 17.9907 12.9578C18.4116 12.7102 18.7799 12.3821 19.0956 11.9736L20.1447 12.7907C19.3029 14.0843 18.0403 14.7311 16.3567 14.7311ZM16.1431 5.72521C15.4499 5.72521 14.8681 5.97899 14.3977 6.48653C13.9273 6.98789 13.6363 7.69351 13.5249 8.60338H18.5571V8.4734C18.5076 7.60066 18.2724 6.926 17.8515 6.4494C17.4306 5.96661 16.8611 5.72521 16.1431 5.72521ZM24.6012 2.06715V4.49967H26.4767V5.82734H24.6012V12.0572C24.6012 12.4595 24.6848 12.7628 24.8519 12.9671C25.019 13.1651 25.3038 13.2642 25.7061 13.2642C25.9042 13.2642 26.1765 13.227 26.5231 13.1527V14.5454C26.0713 14.6692 25.6318 14.7311 25.2047 14.7311C24.4372 14.7311 23.8585 14.499 23.4685 14.0348C23.0786 13.5705 22.8836 12.9114 22.8836 12.0572V5.82734H21.0546V4.49967H22.8836V2.06715H24.6012ZM32.7437 8.51982C31.2148 8.08036 30.1007 7.54186 29.4013 6.90433C28.7081 6.26061 28.3614 5.46834 28.3614 4.52752C28.3614 3.46291 28.7854 2.58398 29.6334 1.89075C30.4876 1.19132 31.5955 0.841606 32.9572 0.841606C33.8857 0.841606 34.712 1.02111 35.4362 1.3801C36.1665 1.7391 36.7298 2.23427 37.1259 2.86561C37.5283 3.49695 37.7294 4.18709 37.7294 4.93604H35.9375C35.9375 4.11901 35.6776 3.47838 35.1576 3.01416C34.6377 2.54375 33.9042 2.30854 32.9572 2.30854C32.0783 2.30854 31.3912 2.50352 30.8961 2.89346C30.4071 3.27722 30.1626 3.81262 30.1626 4.49967C30.1626 5.05054 30.3947 5.51786 30.8589 5.90162C31.3294 6.27918 32.1247 6.6258 33.245 6.94147C34.3715 7.25714 35.2505 7.60685 35.8818 7.99061C36.5193 8.36818 36.9898 8.81073 37.293 9.31828C37.6025 9.82583 37.7573 10.4231 37.7573 11.1102C37.7573 12.2057 37.3302 13.0847 36.476 13.747C35.6219 14.403 34.4799 14.7311 33.0501 14.7311C32.1216 14.7311 31.2551 14.5547 30.4504 14.2019C29.6458 13.8429 29.0237 13.3539 28.5843 12.7349C28.151 12.116 27.9344 11.4135 27.9344 10.6274H29.7262C29.7262 11.4444 30.0264 12.0912 30.6268 12.5678C31.2334 13.0382 32.0412 13.2734 33.0501 13.2734C33.9909 13.2734 34.712 13.0816 35.2133 12.6978C35.7147 12.3141 35.9654 11.791 35.9654 11.1287C35.9654 10.4665 35.7333 9.95581 35.269 9.59681C34.8048 9.23163 33.963 8.87263 32.7437 8.51982ZM42.1117 2.06715V4.49967H43.9871V5.82734H42.1117V12.0572C42.1117 12.4595 42.1952 12.7628 42.3623 12.9671C42.5295 13.1651 42.8142 13.2642 43.2165 13.2642C43.4146 13.2642 43.6869 13.227 44.0335 13.1527V14.5454C43.5817 14.6692 43.1422 14.7311 42.7151 14.7311C41.9476 14.7311 41.3689 14.499 40.979 14.0348C40.589 13.5705 40.394 12.9114 40.394 12.0572V5.82734H38.565V4.49967H40.394V2.06715H42.1117ZM45.3612 9.42969C45.3612 8.44555 45.5531 7.56043 45.9368 6.77435C46.3268 5.98827 46.8653 5.38169 47.5523 4.9546C48.2456 4.52752 49.0347 4.31398 49.9199 4.31398C51.2878 4.31398 52.3926 4.78748 53.2344 5.7345C54.0824 6.68151 54.5064 7.94109 54.5064 9.51325V9.63395C54.5064 10.6119 54.3176 11.4908 53.94 12.2707C53.5686 13.0444 53.0332 13.6479 52.3338 14.0812C51.6406 14.5145 50.8421 14.7311 49.9384 14.7311C48.5767 14.7311 47.4719 14.2576 46.6239 13.3106C45.7821 12.3636 45.3612 11.1102 45.3612 9.55039V9.42969ZM47.0881 9.63395C47.0881 10.7481 47.345 11.6425 47.8587 12.3171C48.3786 12.9918 49.0719 13.3292 49.9384 13.3292C50.8112 13.3292 51.5044 12.9887 52.0181 12.3079C52.5319 11.6208 52.7887 10.6614 52.7887 9.42969C52.7887 8.32794 52.5257 7.43664 51.9996 6.75578C51.4796 6.06873 50.7864 5.72521 49.9199 5.72521C49.0719 5.72521 48.3879 6.06255 47.868 6.73721C47.3481 7.41188 47.0881 8.37746 47.0881 9.63395ZM61.5161 6.04088C61.2561 5.99755 60.9745 5.97589 60.6712 5.97589C59.5447 5.97589 58.7803 6.45559 58.378 7.41498V14.5454H56.6603V4.49967H58.3315L58.3594 5.66022C58.9226 4.76273 59.7211 4.31398 60.7548 4.31398C61.089 4.31398 61.3428 4.35731 61.5161 4.44396V6.04088ZM66.5575 12.0293L68.8972 4.49967H70.7355L66.6968 16.0959C66.0717 17.7671 65.0782 18.6027 63.7165 18.6027L63.3916 18.5748L62.7509 18.4542V17.0615L63.2151 17.0986C63.797 17.0986 64.2488 16.981 64.5707 16.7458C64.8987 16.5106 65.168 16.0804 65.3784 15.4553L65.7591 14.434L62.1753 4.49967H64.0507L66.5575 12.0293ZM10.2661 32.4297C10.2661 31.4455 10.458 30.5604 10.8417 29.7744C11.2317 28.9883 11.7702 28.3817 12.4572 27.9546C13.1505 27.5275 13.9396 27.314 14.8247 27.314C16.1927 27.314 17.2975 27.7875 18.1393 28.7345C18.9873 29.6815 19.4113 30.9411 19.4113 32.5133V32.634C19.4113 33.6119 19.2225 34.4908 18.8449 35.2707C18.4735 36.0444 17.9381 36.6479 17.2387 37.0812C16.5455 37.5145 15.747 37.7311 14.8433 37.7311C13.4816 37.7311 12.3768 37.2576 11.5288 36.3106C10.687 35.3636 10.2661 34.1102 10.2661 32.5504V32.4297ZM11.993 32.634C11.993 33.7481 12.2499 34.6425 12.7636 35.3171C13.2835 35.9918 13.9768 36.3292 14.8433 36.3292C15.7161 36.3292 16.4093 35.9887 16.923 35.3079C17.4368 34.6208 17.6936 33.6614 17.6936 32.4297C17.6936 31.3279 17.4306 30.4366 16.9045 29.7558C16.3845 29.0687 15.6913 28.7252 14.8247 28.7252C13.9768 28.7252 13.2928 29.0625 12.7729 29.7372C12.253 30.4119 11.993 31.3775 11.993 32.634ZM23.19 27.4997L23.2457 28.7623C24.0132 27.7968 25.0159 27.314 26.2539 27.314C28.3769 27.314 29.4477 28.5117 29.4663 30.907V37.5454H27.7487V30.8978C27.7425 30.1736 27.5754 29.6382 27.2473 29.2916C26.9254 28.9449 26.421 28.7716 25.7339 28.7716C25.1769 28.7716 24.6879 28.9202 24.267 29.2173C23.8461 29.5144 23.5181 29.9043 23.2829 30.3871V37.5454H21.5652V27.4997H23.19ZM33.9228 37.5454H32.2052V23.2845H33.9228V37.5454ZM38.5464 37.5454H36.8288V27.4997H38.5464V37.5454ZM36.6896 24.835C36.6896 24.5565 36.7731 24.3213 36.9402 24.1294C37.1135 23.9375 37.3673 23.8416 37.7016 23.8416C38.0358 23.8416 38.2896 23.9375 38.4629 24.1294C38.6362 24.3213 38.7228 24.5565 38.7228 24.835C38.7228 25.1136 38.6362 25.3457 38.4629 25.5314C38.2896 25.7171 38.0358 25.8099 37.7016 25.8099C37.3673 25.8099 37.1135 25.7171 36.9402 25.5314C36.7731 25.3457 36.6896 25.1136 36.6896 24.835ZM42.9287 27.4997L42.9844 28.7623C43.7519 27.7968 44.7546 27.314 45.9925 27.314C48.1156 27.314 49.1864 28.5117 49.205 30.907V37.5454H47.4873V30.8978C47.4811 30.1736 47.314 29.6382 46.986 29.2916C46.6641 28.9449 46.1597 28.7716 45.4726 28.7716C44.9156 28.7716 44.4266 28.9202 44.0057 29.2173C43.5848 29.5144 43.2567 29.9043 43.0215 30.3871V37.5454H41.3039V27.4997H42.9287ZM55.964 37.7311C54.6023 37.7311 53.4944 37.2854 52.6402 36.3941C51.786 35.4966 51.3589 34.299 51.3589 32.8011V32.4854C51.3589 31.4889 51.5477 30.6007 51.9253 29.8208C52.309 29.0347 52.8414 28.4219 53.5222 27.9825C54.2093 27.5368 54.952 27.314 55.7505 27.314C57.0565 27.314 58.0716 27.7442 58.7958 28.6045C59.5199 29.4649 59.882 30.6966 59.882 32.2997V33.0146H53.0766C53.1013 34.005 53.3891 34.8065 53.94 35.4193C54.4971 36.0259 55.2027 36.3292 56.0569 36.3292C56.6634 36.3292 57.1772 36.2054 57.5981 35.9578C58.019 35.7102 58.3872 35.3821 58.7029 34.9736L59.7521 35.7907C58.9103 37.0843 57.6476 37.7311 55.964 37.7311ZM55.7505 28.7252C55.0572 28.7252 54.4754 28.979 54.005 29.4865C53.5346 29.9879 53.2437 30.6935 53.1323 31.6034H58.1644V31.4734C58.1149 30.6007 57.8797 29.926 57.4588 29.4494C57.0379 28.9666 56.4685 28.7252 55.7505 28.7252Z" fill="white"/>
<path d="M2.37434 9.25329V8.06489H1.18594V9.25329H2.37434ZM2.37434 14.5454V15.7338H3.56275V14.5454H2.37434ZM0.591734 14.5454H-0.596672V15.7338H0.591734V14.5454ZM0.591734 1.02729V-0.161111H-0.596672V1.02729H0.591734ZM9.04984 2.15999L8.25303 3.04171L8.25628 3.04462L9.04984 2.15999ZM9.07769 8.19487L9.85446 9.09428L9.85499 9.09382L9.07769 8.19487ZM2.37434 7.79564H1.18594V8.98404H2.37434V7.79564ZM7.76859 7.12716L8.55272 8.0202L8.5588 8.01479L7.76859 7.12716ZM5.6796 2.49423L5.70452 1.30609L5.69206 1.30583H5.6796V2.49423ZM2.37434 2.49423V1.30583H1.18594V2.49423H2.37434ZM1.18594 9.25329V14.5454H3.56275V9.25329H1.18594ZM2.37434 13.357H0.591734V15.7338H2.37434V13.357ZM1.78014 14.5454V1.02729H-0.596672V14.5454H1.78014ZM0.591734 2.2157H5.57747V-0.161111H0.591734V2.2157ZM5.57747 2.2157C6.85678 2.2157 7.69705 2.53925 8.25304 3.0417L9.84664 1.27828C8.73144 0.270468 7.25679 -0.161111 5.57747 -0.161111V2.2157ZM8.25628 3.04462C8.81995 3.55027 9.12412 4.21451 9.12412 5.15886H11.5009C11.5009 3.61498 10.9633 2.27998 9.8434 1.27537L8.25628 3.04462ZM9.12412 5.15886C9.12412 6.20365 8.80899 6.85615 8.3004 7.29591L9.85499 9.09382C10.9928 8.10997 11.5009 6.73847 11.5009 5.15886H9.12412ZM8.30093 7.29545C7.77454 7.75006 6.91994 8.06489 5.5589 8.06489V10.4417C7.25552 10.4417 8.74679 10.0509 9.85446 9.09428L8.30093 7.29545ZM5.5589 8.06489H2.37434V10.4417H5.5589V8.06489ZM2.37434 8.98404H5.57747V6.60723H2.37434V8.98404ZM5.57747 8.98404C6.70142 8.98404 7.75368 8.72175 8.5527 8.02017L6.98448 6.23414C6.7684 6.42387 6.35992 6.60723 5.57747 6.60723V8.98404ZM8.5588 8.01479C9.38021 7.28353 9.71832 6.27401 9.71832 5.17743H7.34151C7.34151 5.7768 7.17207 6.06711 6.97838 6.23953L8.5588 8.01479ZM9.71832 5.17743C9.71832 4.10021 9.36682 3.12636 8.58766 2.3852L6.94952 4.10734C7.18545 4.33176 7.34151 4.64535 7.34151 5.17743H9.71832ZM8.58766 2.3852C7.81311 1.64843 6.80475 1.32917 5.70452 1.30609L5.65467 3.68238C6.32468 3.69643 6.70898 3.87853 6.94952 4.10734L8.58766 2.3852ZM5.6796 1.30583H2.37434V3.68264H5.6796V1.30583ZM1.18594 2.49423V7.79564H3.56275V2.49423H1.18594ZM13.0329 13.3941L12.172 14.2134L12.1748 14.2164L13.0329 13.3941ZM12.318 6.82077L11.25 6.29941L11.2483 6.30293L12.318 6.82077ZM13.9149 4.98246L14.5594 5.98094L14.5616 5.97948L13.9149 4.98246ZM19.1884 5.60451L18.2792 6.36981L19.1884 5.60451ZM20.2747 10.0146V11.203H21.4631V10.0146H20.2747ZM13.4692 10.0146V8.82621H12.2507L12.2812 10.0443L13.4692 10.0146ZM14.3327 12.4193L13.4488 13.2138L13.4574 13.2231L14.3327 12.4193ZM19.0956 11.9736L19.8258 11.036L18.8846 10.3031L18.1552 11.247L19.0956 11.9736ZM20.1447 12.7907L21.1408 13.4388L21.7362 12.5238L20.8749 11.853L20.1447 12.7907ZM14.3977 6.48653L15.2643 7.2997L15.2693 7.29437L14.3977 6.48653ZM13.5249 8.60338L12.3453 8.45894L12.1821 9.79179H13.5249V8.60338ZM18.5571 8.60338V9.79179H19.7455V8.60338H18.5571ZM18.5571 8.4734H19.7455V8.43971L19.7436 8.40608L18.5571 8.4734ZM17.8515 6.4494L16.9557 7.23036L16.9607 7.23605L17.8515 6.4494ZM16.3567 13.5427C15.282 13.5427 14.4966 13.2039 13.8909 12.5719L12.1748 14.2164C13.2775 15.367 14.7079 15.9195 16.3567 15.9195V13.5427ZM13.8937 12.5748C13.2922 11.9428 12.94 11.0615 12.94 9.80107H10.5632C10.5632 11.5364 11.0652 13.0505 12.172 14.2134L13.8937 12.5748ZM12.94 9.80107V9.4854H10.5632V9.80107H12.94ZM12.94 9.4854C12.94 8.64131 13.0991 7.93446 13.3876 7.33862L11.2483 6.30293C10.7816 7.26686 10.5632 8.33644 10.5632 9.4854H12.94ZM13.3859 7.34213C13.6824 6.73468 14.0749 6.29361 14.5594 5.98094L13.2704 3.98398C12.3931 4.55023 11.721 5.33471 11.25 6.29942L13.3859 7.34213ZM14.5616 5.97948C15.0613 5.65535 15.5804 5.50239 16.1431 5.50239V3.12557C15.109 3.12557 14.1425 3.41826 13.2682 3.98543L14.5616 5.97948ZM16.1431 5.50239C17.1614 5.50239 17.8185 5.8224 18.2792 6.36981L20.0976 4.83922C19.11 3.66591 17.7368 3.12557 16.1431 3.12557V5.50239ZM18.2792 6.36981C18.7598 6.94072 19.0863 7.85945 19.0863 9.29971H21.4631C21.4631 7.53376 21.0654 5.98902 20.0976 4.83922L18.2792 6.36981ZM19.0863 9.29971V10.0146H21.4631V9.29971H19.0863ZM20.2747 8.82621H13.4692V11.203H20.2747V8.82621ZM12.2812 10.0443C12.3115 11.2579 12.6722 12.3499 13.4489 13.2138L15.2165 11.6248C14.8914 11.2632 14.6764 10.7521 14.6573 9.98491L12.2812 10.0443ZM13.4574 13.2231C14.2488 14.0849 15.2766 14.5176 16.4495 14.5176V12.1407C15.9141 12.1407 15.5307 11.9668 15.208 11.6154L13.4574 13.2231ZM16.4495 14.5176C17.2171 14.5176 17.9504 14.3603 18.5933 13.9821L17.3882 11.9334C17.1893 12.0504 16.8951 12.1407 16.4495 12.1407V14.5176ZM18.5933 13.9821C19.1521 13.6534 19.633 13.2217 20.036 12.7003L18.1552 11.247C17.9268 11.5426 17.6712 11.767 17.3882 11.9334L18.5933 13.9821ZM18.3654 12.9112L19.4145 13.7283L20.8749 11.853L19.8258 11.036L18.3654 12.9112ZM19.1486 12.1425C18.5488 13.0643 17.6816 13.5427 16.3567 13.5427V15.9195C18.3989 15.9195 20.0571 15.1042 21.1408 13.4388L19.1486 12.1425ZM16.1431 4.53681C15.1197 4.53681 14.2218 4.92801 13.5261 5.6787L15.2693 7.29437C15.5143 7.02996 15.7801 6.91362 16.1431 6.91362V4.53681ZM13.531 5.67338C12.8385 6.41141 12.4773 7.38127 12.3453 8.45894L14.7045 8.74782C14.7954 8.00575 15.016 7.56437 15.2643 7.29969L13.531 5.67338ZM13.5249 9.79179H18.5571V7.41498H13.5249V9.79179ZM19.7455 8.60338V8.4734H17.3687V8.60338H19.7455ZM19.7436 8.40608C19.6846 7.36574 19.3954 6.40234 18.7422 5.66274L16.9607 7.23605C17.1493 7.44965 17.3306 7.83559 17.3706 8.54072L19.7436 8.40608ZM18.7473 5.66845C18.0718 4.89372 17.1581 4.53681 16.1431 4.53681V6.91362C16.5641 6.91362 16.7893 7.0395 16.9557 7.23034L18.7473 5.66845ZM24.6012 2.06715H25.7896V0.878744H24.6012V2.06715ZM24.6012 4.49967H23.4128V5.68807H24.6012V4.49967ZM26.4767 4.49967H27.6651V3.31126H26.4767V4.49967ZM26.4767 5.82734V7.01575H27.6651V5.82734H26.4767ZM24.6012 5.82734V4.63893H23.4128V5.82734H24.6012ZM24.8519 12.9671L23.9321 13.7196L23.9378 13.7266L23.9436 13.7334L24.8519 12.9671ZM26.5231 13.1527H27.7115V11.6827L26.2741 11.9907L26.5231 13.1527ZM26.5231 14.5454L26.8371 15.6916L27.7115 15.452V14.5454H26.5231ZM22.8836 5.82734H24.072V4.63893H22.8836V5.82734ZM21.0546 5.82734H19.8662V7.01575H21.0546V5.82734ZM21.0546 4.49967V3.31126H19.8662V4.49967H21.0546ZM22.8836 4.49967V5.68807H24.072V4.49967H22.8836ZM22.8836 2.06715V0.878744H21.6952V2.06715H22.8836ZM23.4128 2.06715V4.49967H25.7896V2.06715H23.4128ZM24.6012 5.68807H26.4767V3.31126H24.6012V5.68807ZM25.2883 4.49967V5.82734H27.6651V4.49967H25.2883ZM26.4767 4.63893H24.6012V7.01575H26.4767V4.63893ZM23.4128 5.82734V12.0572H25.7896V5.82734H23.4128ZM23.4128 12.0572C23.4128 12.5965 23.5207 13.2167 23.9321 13.7196L25.7717 12.2145C25.8113 12.2629 25.8157 12.2928 25.8096 12.2707C25.8028 12.2459 25.7896 12.1798 25.7896 12.0572H23.4128ZM23.9436 13.7334C24.4371 14.3183 25.1473 14.4526 25.7061 14.4526V12.0758C25.6535 12.0758 25.6177 12.0725 25.5959 12.0693C25.5742 12.0662 25.5709 12.0638 25.5812 12.0674C25.5921 12.0712 25.6181 12.0816 25.6522 12.1041C25.6872 12.127 25.7251 12.159 25.7602 12.2007L23.9436 13.7334ZM25.7061 14.4526C26.0289 14.4526 26.397 14.3952 26.7721 14.3148L26.2741 11.9907C25.956 12.0589 25.7795 12.0758 25.7061 12.0758V14.4526ZM25.3347 13.1527V14.5454H27.7115V13.1527H25.3347ZM26.2091 13.3992C25.8498 13.4977 25.516 13.5427 25.2047 13.5427V15.9195C25.7476 15.9195 26.2928 15.8407 26.8371 15.6916L26.2091 13.3992ZM25.2047 13.5427C24.6872 13.5427 24.4848 13.397 24.3785 13.2704L22.5586 14.7991C23.2321 15.601 24.1872 15.9195 25.2047 15.9195V13.5427ZM24.3785 13.2704C24.2297 13.0932 24.072 12.7446 24.072 12.0572H21.6952C21.6952 13.0781 21.9275 14.0479 22.5586 14.7991L24.3785 13.2704ZM24.072 12.0572V5.82734H21.6952V12.0572H24.072ZM22.8836 4.63893H21.0546V7.01575H22.8836V4.63893ZM22.243 5.82734V4.49967H19.8662V5.82734H22.243ZM21.0546 5.68807H22.8836V3.31126H21.0546V5.68807ZM24.072 4.49967V2.06715H21.6952V4.49967H24.072ZM22.8836 3.25556H24.6012V0.878744H22.8836V3.25556ZM32.7437 8.51982L33.074 7.37824L33.072 7.37767L32.7437 8.51982ZM29.4013 6.90433L28.5926 7.77523L28.6007 7.78263L29.4013 6.90433ZM29.6334 1.89075L30.3856 2.81082L30.3863 2.81022L29.6334 1.89075ZM35.4362 1.3801L34.9083 2.44487L34.9119 2.44664L35.4362 1.3801ZM37.1259 2.86561L36.1192 3.49725L36.1237 3.50427L37.1259 2.86561ZM37.7294 4.93604V6.12444H38.9178V4.93604H37.7294ZM35.9375 4.93604H34.7491V6.12444H35.9375V4.93604ZM35.1576 3.01416L34.3603 3.89543L34.3661 3.90064L35.1576 3.01416ZM30.8961 2.89346L31.6298 3.82834L31.6313 3.82712L30.8961 2.89346ZM30.8589 5.90162L30.1018 6.81757L30.1084 6.82304L30.1151 6.82841L30.8589 5.90162ZM33.245 6.94147L32.9227 8.08534L32.9244 8.0858L33.245 6.94147ZM35.8818 7.99061L35.2645 9.0062L35.2762 9.01315L35.8818 7.99061ZM37.293 9.31828L36.2729 9.92791L36.2784 9.93697L37.293 9.31828ZM36.476 13.747L37.1999 14.6894L37.2042 14.6861L36.476 13.747ZM30.4504 14.2019L29.9662 15.2872L29.9732 15.2903L30.4504 14.2019ZM28.5843 12.7349L27.6107 13.4165L27.6153 13.4229L28.5843 12.7349ZM27.9344 10.6274V9.43898H26.7459V10.6274H27.9344ZM29.7262 10.6274H30.9146V9.43898H29.7262V10.6274ZM30.6268 12.5678L29.8879 13.4987L29.8986 13.5069L30.6268 12.5678ZM35.269 9.59681L34.5342 10.5309L34.542 10.5369L35.269 9.59681ZM33.072 7.37767C31.6143 6.95866 30.704 6.48376 30.2019 6.02604L28.6007 7.78263C29.4974 8.59996 30.8154 9.20205 32.4154 9.66198L33.072 7.37767ZM30.2099 6.03348C29.7573 5.6132 29.5498 5.13581 29.5498 4.52752H27.173C27.173 5.80087 27.6588 6.90802 28.5926 7.77519L30.2099 6.03348ZM29.5498 4.52752C29.5498 3.83124 29.8045 3.28587 30.3856 2.81082L28.8812 0.970671C27.7664 1.88209 27.173 3.09458 27.173 4.52752H29.5498ZM30.3863 2.81022C30.9821 2.32239 31.8039 2.03001 32.9572 2.03001V-0.346799C31.3871 -0.346799 29.9931 0.0602441 28.8805 0.971267L30.3863 2.81022ZM32.9572 2.03001C33.7298 2.03001 34.371 2.1785 34.9083 2.44486L35.964 0.315346C35.0529 -0.136292 34.0415 -0.346799 32.9572 -0.346799V2.03001ZM34.9119 2.44664C35.4631 2.71754 35.8511 3.06988 36.1193 3.49724L38.1326 2.23398C37.6085 1.39866 36.87 0.760657 35.9604 0.31357L34.9119 2.44664ZM36.1237 3.50427C36.4044 3.94471 36.541 4.41327 36.541 4.93604H38.9178C38.9178 3.96092 38.6521 3.04919 38.1281 2.22695L36.1237 3.50427ZM37.7294 3.74763H35.9375V6.12444H37.7294V3.74763ZM37.1259 4.93604C37.1259 3.84449 36.7657 2.85676 35.9491 2.12768L34.3661 3.90064C34.5894 4.1 34.7491 4.39352 34.7491 4.93604H37.1259ZM35.9549 2.13292C35.1497 1.40432 34.0942 1.12014 32.9572 1.12014V3.49695C33.7143 3.49695 34.1257 3.68318 34.3603 3.89541L35.9549 2.13292ZM32.9572 1.12014C31.915 1.12014 30.9345 1.35058 30.1608 1.95981L31.6313 3.82712C31.848 3.65646 32.2416 3.49695 32.9572 3.49695V1.12014ZM30.1624 1.95859C29.3535 2.59343 28.9742 3.49164 28.9742 4.49967H31.351C31.351 4.1336 31.4607 3.96101 31.6298 3.82834L30.1624 1.95859ZM28.9742 4.49967C28.9742 5.44082 29.3934 6.23199 30.1018 6.81757L31.6161 4.98566C31.396 4.80372 31.351 4.66026 31.351 4.49967H28.9742ZM30.1151 6.82841C30.7784 7.36083 31.765 7.75912 32.9227 8.08534L33.5673 5.7976C32.4845 5.49248 31.8803 5.19753 31.6028 4.97482L30.1151 6.82841ZM32.9244 8.0858C33.9997 8.38714 34.7633 8.70147 35.2645 9.00613L36.4991 6.97509C35.7376 6.51224 34.7434 6.12715 33.5657 5.79714L32.9244 8.0858ZM35.2762 9.01315C35.7857 9.31487 36.0938 9.62817 36.2729 9.92788L38.3132 8.70868C37.8857 7.9933 37.253 7.42148 36.4874 6.96807L35.2762 9.01315ZM36.2784 9.93697C36.4575 10.2307 36.5689 10.6068 36.5689 11.1102H38.9457C38.9457 10.2394 38.7476 9.42097 38.3077 8.69959L36.2784 9.93697ZM36.5689 11.1102C36.5689 11.8442 36.3071 12.3742 35.7478 12.8078L37.2042 14.6861C38.3533 13.7952 38.9457 12.5672 38.9457 11.1102H36.5689ZM35.7521 12.8045C35.1645 13.2558 34.3036 13.5427 33.0501 13.5427V15.9195C34.6562 15.9195 36.0792 15.5503 37.1999 14.6894L35.7521 12.8045ZM33.0501 13.5427C32.2764 13.5427 31.5734 13.3966 30.9276 13.1135L29.9732 15.2903C30.9368 15.7127 31.9668 15.9195 33.0501 15.9195V13.5427ZM30.9346 13.1166C30.2926 12.8301 29.851 12.4663 29.5533 12.047L27.6153 13.4229C28.1965 14.2416 28.999 14.8556 29.9662 15.2872L30.9346 13.1166ZM29.5578 12.0534C29.2703 11.6426 29.1228 11.1801 29.1228 10.6274H26.7459C26.7459 11.6468 27.0317 12.5893 27.6107 13.4165L29.5578 12.0534ZM27.9344 11.8158H29.7262V9.43898H27.9344V11.8158ZM28.5378 10.6274C28.5378 11.7795 28.9827 12.78 29.888 13.4986L31.3657 11.637C31.0702 11.4024 30.9146 11.1093 30.9146 10.6274H28.5378ZM29.8986 13.5069C30.7708 14.1834 31.8605 14.4619 33.0501 14.4619V12.085C32.2218 12.085 31.696 11.8931 31.3551 11.6287L29.8986 13.5069ZM33.0501 14.4619C34.1298 14.4619 35.1473 14.245 35.9357 13.6415L34.491 11.7541C34.2767 11.9182 33.852 12.085 33.0501 12.085V14.4619ZM35.9357 13.6415C36.7472 13.0203 37.1538 12.1399 37.1538 11.1287H34.777C34.777 11.4422 34.6822 11.6078 34.491 11.7541L35.9357 13.6415ZM37.1538 11.1287C37.1538 10.1524 36.7914 9.27181 35.996 8.65672L34.542 10.5369C34.6751 10.6398 34.777 10.7805 34.777 11.1287H37.1538ZM36.0038 8.66278C35.3458 8.14513 34.3102 7.73594 33.074 7.37824L32.4134 9.6614C33.6158 10.0093 34.2639 10.3181 34.5343 10.5308L36.0038 8.66278ZM42.1117 2.06715H43.3001V0.878744H42.1117V2.06715ZM42.1117 4.49967H40.9233V5.68807H42.1117V4.49967ZM43.9871 4.49967H45.1755V3.31126H43.9871V4.49967ZM43.9871 5.82734V7.01575H45.1755V5.82734H43.9871ZM42.1117 5.82734V4.63893H40.9233V5.82734H42.1117ZM42.3623 12.9671L41.4426 13.7196L41.4483 13.7266L41.4541 13.7334L42.3623 12.9671ZM44.0335 13.1527H45.2219V11.6827L43.7845 11.9907L44.0335 13.1527ZM44.0335 14.5454L44.3476 15.6916L45.2219 15.452V14.5454H44.0335ZM40.394 5.82734H41.5825V4.63893H40.394V5.82734ZM38.565 5.82734H37.3766V7.01575H38.565V5.82734ZM38.565 4.49967V3.31126H37.3766V4.49967H38.565ZM40.394 4.49967V5.68807H41.5825V4.49967H40.394ZM40.394 2.06715V0.878744H39.2056V2.06715H40.394ZM40.9233 2.06715V4.49967H43.3001V2.06715H40.9233ZM42.1117 5.68807H43.9871V3.31126H42.1117V5.68807ZM42.7987 4.49967V5.82734H45.1755V4.49967H42.7987ZM43.9871 4.63893H42.1117V7.01575H43.9871V4.63893ZM40.9233 5.82734V12.0572H43.3001V5.82734H40.9233ZM40.9233 12.0572C40.9233 12.5965 41.0311 13.2167 41.4426 13.7196L43.2821 12.2145C43.3217 12.2629 43.3261 12.2928 43.32 12.2707C43.3132 12.2459 43.3001 12.1798 43.3001 12.0572H40.9233ZM41.4541 13.7334C41.9476 14.3183 42.6577 14.4526 43.2165 14.4526V12.0758C43.164 12.0758 43.1281 12.0725 43.1064 12.0693C43.0846 12.0662 43.0813 12.0638 43.0916 12.0674C43.1025 12.0712 43.1285 12.0816 43.1626 12.1041C43.1976 12.127 43.2355 12.159 43.2706 12.2007L41.4541 13.7334ZM43.2165 14.4526C43.5393 14.4526 43.9074 14.3952 44.2825 14.3148L43.7845 11.9907C43.4664 12.0589 43.2899 12.0758 43.2165 12.0758V14.4526ZM42.8451 13.1527V14.5454H45.2219V13.1527H42.8451ZM43.7195 13.3992C43.3602 13.4977 43.0264 13.5427 42.7151 13.5427V15.9195C43.258 15.9195 43.8032 15.8407 44.3476 15.6916L43.7195 13.3992ZM42.7151 13.5427C42.1976 13.5427 41.9953 13.397 41.8889 13.2704L40.069 14.7991C40.7425 15.601 41.6976 15.9195 42.7151 15.9195V13.5427ZM41.8889 13.2704C41.7401 13.0932 41.5825 12.7446 41.5825 12.0572H39.2056C39.2056 13.0781 39.4379 14.0479 40.069 14.7991L41.8889 13.2704ZM41.5825 12.0572V5.82734H39.2056V12.0572H41.5825ZM40.394 4.63893H38.565V7.01575H40.394V4.63893ZM39.7534 5.82734V4.49967H37.3766V5.82734H39.7534ZM38.565 5.68807H40.394V3.31126H38.565V5.68807ZM41.5825 4.49967V2.06715H39.2056V4.49967H41.5825ZM40.394 3.25556H42.1117V0.878744H40.394V3.25556ZM45.9368 6.77435L44.8722 6.24622L44.8689 6.25299L45.9368 6.77435ZM47.5523 4.9546L46.929 3.94279L46.9249 3.94531L47.5523 4.9546ZM53.2344 5.7345L52.3462 6.52403L52.3491 6.52726L53.2344 5.7345ZM53.94 12.2707L52.8704 11.7529L52.8686 11.7565L53.94 12.2707ZM52.3338 14.0812L51.708 13.0709L51.704 13.0734L52.3338 14.0812ZM46.6239 13.3106L45.7357 14.1001L45.7385 14.1033L46.6239 13.3106ZM47.8587 12.3171L46.9132 13.0371L46.9174 13.0426L47.8587 12.3171ZM52.0181 12.3079L52.9668 13.0237L52.9699 13.0195L52.0181 12.3079ZM51.9996 6.75578L51.0519 7.47295L51.0592 7.48243L51.9996 6.75578ZM46.5496 9.4297C46.5496 8.60347 46.7097 7.90013 47.0048 7.29571L44.8689 6.25299C44.3965 7.22073 44.1728 8.28763 44.1728 9.4297H46.5496ZM47.0015 7.30247C47.3019 6.69691 47.6962 6.2645 48.1797 5.9639L46.9249 3.94531C46.0344 4.49887 45.3517 5.27963 44.8722 6.24623L47.0015 7.30247ZM48.1757 5.96641C48.6653 5.66478 49.235 5.50239 49.9199 5.50239V3.12557C48.8345 3.12557 47.8259 3.39026 46.929 3.9428L48.1757 5.96641ZM49.9199 5.50239C50.9787 5.50239 51.7494 5.85261 52.3462 6.52403L54.1226 4.94496C53.0359 3.72236 51.5968 3.12557 49.9199 3.12557V5.50239ZM52.3491 6.52726C52.9585 7.20793 53.318 8.16142 53.318 9.51325H55.6948C55.6948 7.72076 55.2062 6.15509 54.1197 4.94173L52.3491 6.52726ZM53.318 9.51325V9.63395H55.6948V9.51325H53.318ZM53.318 9.63395C53.318 10.4558 53.1603 11.1541 52.8704 11.7529L55.0097 12.7886C55.4749 11.8276 55.6948 10.7681 55.6948 9.63395H53.318ZM52.8686 11.7565C52.591 12.335 52.206 12.7624 51.708 13.0709L52.9596 15.0915C53.8604 14.5334 54.5463 13.7539 55.0114 12.785L52.8686 11.7565ZM51.704 13.0734C51.2192 13.3764 50.6436 13.5427 49.9384 13.5427V15.9195C51.0406 15.9195 52.062 15.6525 52.9637 15.089L51.704 13.0734ZM49.9384 13.5427C48.8875 13.5427 48.1143 13.1935 47.5092 12.5178L45.7385 14.1033C46.8294 15.3216 48.2659 15.9195 49.9384 15.9195V13.5427ZM47.5121 12.521C46.9057 11.8388 46.5496 10.8893 46.5496 9.55039H44.1728C44.1728 11.3311 44.6585 12.8883 45.7357 14.1001L47.5121 12.521ZM46.5496 9.55039V9.4297H44.1728V9.55039H46.5496ZM45.8997 9.63395C45.8997 10.9266 46.1987 12.0988 46.9132 13.0371L48.8042 11.5972C48.4912 11.1862 48.2765 10.5696 48.2765 9.63395H45.8997ZM46.9174 13.0426C47.6669 14.0151 48.7108 14.5176 49.9384 14.5176V12.1407C49.433 12.1407 49.0904 11.9685 48.8 11.5917L46.9174 13.0426ZM49.9384 14.5176C51.1738 14.5176 52.2224 14.0102 52.9668 13.0237L51.0695 11.5921C50.7864 11.9673 50.4485 12.1407 49.9384 12.1407V14.5176ZM52.9699 13.0195C53.6913 12.0547 53.9771 10.8099 53.9771 9.4297H51.6003C51.6003 10.5129 51.3724 11.1869 51.0664 11.5962L52.9699 13.0195ZM53.9771 9.4297C53.9771 8.13949 53.6672 6.97024 52.9399 6.02913L51.0592 7.48243C51.3842 7.90304 51.6003 8.51639 51.6003 9.4297H53.9771ZM52.9472 6.03865C52.2011 5.05276 51.1561 4.53681 49.9199 4.53681V6.91362C50.4167 6.91362 50.7582 7.08471 51.0519 7.47292L52.9472 6.03865ZM49.9199 4.53681C48.7014 4.53681 47.6704 5.0467 46.9267 6.0118L48.8093 7.46263C49.1054 7.07839 49.4424 6.91362 49.9199 6.91362V4.53681ZM46.9267 6.0118C46.1863 6.97257 45.8997 8.2347 45.8997 9.63395H48.2765C48.2765 8.52022 48.5099 7.85119 48.8093 7.46263L46.9267 6.0118ZM61.5161 6.04088L61.3207 7.21312L62.7045 7.44375V6.04088H61.5161ZM58.378 7.41498L57.282 6.95539L57.1896 7.17588V7.41498H58.378ZM58.378 14.5454V15.7338H59.5664V14.5454H58.378ZM56.6603 14.5454H55.4719V15.7338H56.6603V14.5454ZM56.6603 4.49967V3.31126H55.4719V4.49967H56.6603ZM58.3315 4.49967L59.5196 4.47115L59.4918 3.31126H58.3315V4.49967ZM58.3594 5.66022L57.1713 5.68873L57.2661 9.6379L59.366 6.29195L58.3594 5.66022ZM61.5161 4.44396H62.7045V3.70949L62.0476 3.38102L61.5161 4.44396ZM61.7115 4.86865C61.3782 4.81309 61.0304 4.78749 60.6712 4.78749V7.1643C60.9186 7.1643 61.1341 7.18202 61.3207 7.21312L61.7115 4.86865ZM60.6712 4.78749C59.9398 4.78749 59.2347 4.94411 58.6213 5.32904C58.0012 5.71819 57.5629 6.28553 57.282 6.95539L59.4739 7.87456C59.5953 7.58503 59.7404 7.43283 59.8847 7.34228C60.0357 7.24751 60.2762 7.1643 60.6712 7.1643V4.78749ZM57.1896 7.41498V14.5454H59.5664V7.41498H57.1896ZM58.378 13.357H56.6603V15.7338H58.378V13.357ZM57.8488 14.5454V4.49967H55.4719V14.5454H57.8488ZM56.6603 5.68807H58.3315V3.31126H56.6603V5.68807ZM57.1435 4.52818L57.1713 5.68873L59.5475 5.63171L59.5196 4.47115L57.1435 4.52818ZM59.366 6.29195C59.7185 5.73028 60.1424 5.50239 60.7548 5.50239V3.12557C59.2998 3.12557 58.1268 3.79518 57.3528 5.0285L59.366 6.29195ZM60.7548 5.50239C60.8735 5.50239 60.9511 5.5103 60.9958 5.51793C61.0428 5.52596 61.0304 5.52979 60.9846 5.5069L62.0476 3.38102C61.6301 3.17228 61.1579 3.12557 60.7548 3.12557V5.50239ZM60.3277 4.44396V6.04088H62.7045V4.44396H60.3277ZM66.5575 12.0293L65.43 12.4047L66.5965 15.9088L67.6924 12.382L66.5575 12.0293ZM68.8972 4.49967V3.31126H68.022L67.7623 4.14703L68.8972 4.49967ZM70.7355 4.49967L71.8578 4.89054L72.4078 3.31126H70.7355V4.49967ZM66.6968 16.0959L67.8099 16.5123L67.8146 16.4996L67.8191 16.4868L66.6968 16.0959ZM63.7165 18.6027L63.615 19.7868L63.6657 19.7911H63.7165V18.6027ZM63.3915 18.5748L63.1715 19.7427L63.2304 19.7538L63.2901 19.7589L63.3915 18.5748ZM62.7509 18.4542H61.5625V19.4396L62.5309 19.622L62.7509 18.4542ZM62.7509 17.0615L62.8457 15.8769L61.5625 15.7742V17.0615H62.7509ZM63.2151 17.0986L63.1204 18.2832L63.1677 18.287H63.2151V17.0986ZM64.5707 16.7458L63.8782 15.78L63.8695 15.7863L64.5707 16.7458ZM65.3784 15.4553L64.2648 15.0402L64.2582 15.0581L64.2521 15.0761L65.3784 15.4553ZM65.7591 14.434L66.8727 14.8491L67.0249 14.4407L66.877 14.0307L65.7591 14.434ZM62.1753 4.49967V3.31126H60.4832L61.0574 4.90294L62.1753 4.49967ZM64.0507 4.49967L65.1783 4.12428L64.9076 3.31126H64.0507V4.49967ZM67.6924 12.382L70.0321 4.85231L67.7623 4.14703L65.4227 11.6767L67.6924 12.382ZM68.8972 5.68807H70.7355V3.31126H68.8972V5.68807ZM69.6132 4.1088L65.5745 15.705L67.8191 16.4868L71.8578 4.89054L69.6132 4.1088ZM65.5837 15.6795C65.3172 16.392 65.0103 16.8206 64.7179 17.0665C64.4465 17.2948 64.1324 17.4143 63.7165 17.4143V19.7911C64.6624 19.7911 65.5258 19.4928 66.2478 18.8855C66.9489 18.2958 67.4513 17.471 67.8099 16.5123L65.5837 15.6795ZM63.818 17.4186L63.493 17.3908L63.2901 19.7589L63.615 19.7868L63.818 17.4186ZM63.6116 17.407L62.971 17.2863L62.5309 19.622L63.1715 19.7427L63.6116 17.407ZM63.9393 18.4542V17.0615H61.5625V18.4542H63.9393ZM62.6562 18.2461L63.1204 18.2832L63.3099 15.914L62.8457 15.8769L62.6562 18.2461ZM63.2151 18.287C63.9381 18.287 64.6722 18.1436 65.2719 17.7053L63.8695 15.7863C63.8254 15.8185 63.6558 15.9102 63.2151 15.9102V18.287ZM65.2631 17.7116C65.8859 17.2651 66.2608 16.559 66.5047 15.8344L64.2521 15.0761C64.0751 15.6019 63.9115 15.7561 63.8782 15.78L65.2631 17.7116ZM66.492 15.8703L66.8727 14.8491L64.6455 14.0189L64.2648 15.0402L66.492 15.8703ZM66.877 14.0307L63.2932 4.09639L61.0574 4.90294L64.6412 14.8373L66.877 14.0307ZM62.1753 5.68807H64.0507V3.31126H62.1753V5.68807ZM62.9232 4.87506L65.43 12.4047L67.6851 11.6539L65.1783 4.12428L62.9232 4.87506ZM10.8417 29.7743L9.7771 29.2462L9.77379 29.253L10.8417 29.7743ZM12.4572 27.9546L11.8339 26.9428L11.8298 26.9453L12.4572 27.9546ZM18.1393 28.7345L17.2511 29.524L17.2539 29.5273L18.1393 28.7345ZM18.8449 35.2707L17.7752 34.7529L17.7735 34.7565L18.8449 35.2707ZM17.2387 37.0812L16.6129 36.0709L16.6088 36.0734L17.2387 37.0812ZM11.5288 36.3106L10.6405 37.1001L10.6434 37.1033L11.5288 36.3106ZM12.7636 35.3172L11.8181 36.0371L11.8223 36.0426L12.7636 35.3172ZM16.923 35.3079L17.8717 36.0237L17.8748 36.0195L16.923 35.3079ZM16.9045 29.7558L15.9568 30.473L15.9641 30.4824L16.9045 29.7558ZM11.4545 32.4297C11.4545 31.6035 11.6146 30.9001 11.9097 30.2957L9.77379 29.253C9.30136 30.2207 9.07769 31.2876 9.07769 32.4297H11.4545ZM11.9063 30.3025C12.2067 29.6969 12.601 29.2645 13.0846 28.9639L11.8298 26.9453C10.9393 27.4989 10.2566 28.2796 9.77712 29.2462L11.9063 30.3025ZM13.0806 28.9664C13.5702 28.6648 14.1399 28.5024 14.8247 28.5024V26.1256C13.7394 26.1256 12.7308 26.3903 11.8339 26.9428L13.0806 28.9664ZM14.8247 28.5024C15.8836 28.5024 16.6542 28.8526 17.2511 29.524L19.0275 27.945C17.9408 26.7224 16.5017 26.1256 14.8247 26.1256V28.5024ZM17.2539 29.5273C17.8634 30.2079 18.2228 31.1614 18.2228 32.5133H20.5997C20.5997 30.7208 20.1111 29.1551 19.0246 27.9417L17.2539 29.5273ZM18.2228 32.5133V32.634H20.5997V32.5133H18.2228ZM18.2228 32.634C18.2228 33.4558 18.0651 34.1541 17.7753 34.7529L19.9146 35.7886C20.3798 34.8276 20.5997 33.7681 20.5997 32.634H18.2228ZM17.7735 34.7565C17.4958 35.335 17.1109 35.7624 16.6129 36.0709L17.8645 38.0915C18.7653 37.5334 19.4512 36.7539 19.9163 35.785L17.7735 34.7565ZM16.6088 36.0734C16.1241 36.3764 15.5485 36.5427 14.8433 36.5427V38.9195C15.9455 38.9195 16.9669 38.6525 17.8686 38.089L16.6088 36.0734ZM14.8433 36.5427C13.7924 36.5427 13.0192 36.1935 12.4141 35.5178L10.6434 37.1033C11.7343 38.3216 13.1708 38.9195 14.8433 38.9195V36.5427ZM12.417 35.521C11.8106 34.8388 11.4545 33.8893 11.4545 32.5504H9.07769C9.07769 34.3311 9.56339 35.8883 10.6406 37.1001L12.417 35.521ZM11.4545 32.5504V32.4297H9.07769V32.5504H11.4545ZM10.8046 32.634C10.8046 33.9266 11.1036 35.0988 11.8181 36.0371L13.7091 34.5972C13.3961 34.1862 13.1814 33.5696 13.1814 32.634H10.8046ZM11.8223 36.0426C12.5718 37.0151 13.6157 37.5176 14.8433 37.5176V35.1407C14.3379 35.1407 13.9953 34.9686 13.7049 34.5917L11.8223 36.0426ZM14.8433 37.5176C16.0787 37.5176 17.1273 37.0102 17.8717 36.0237L15.9744 34.5921C15.6913 34.9673 15.3534 35.1407 14.8433 35.1407V37.5176ZM17.8748 36.0195C18.5962 35.0547 18.882 33.8099 18.882 32.4297H16.5052C16.5052 33.5129 16.2773 34.1869 15.9713 34.5962L17.8748 36.0195ZM18.882 32.4297C18.882 31.1395 18.572 29.9702 17.8448 29.0291L15.9641 30.4824C16.2891 30.903 16.5052 31.5164 16.5052 32.4297H18.882ZM17.8521 29.0386C17.106 28.0528 16.061 27.5368 14.8247 27.5368V29.9136C15.3216 29.9136 15.663 30.0847 15.9568 30.4729L17.8521 29.0386ZM14.8247 27.5368C13.6062 27.5368 12.5753 28.0467 11.8316 29.0118L13.7142 30.4626C14.0103 30.0784 14.3473 29.9136 14.8247 29.9136V27.5368ZM11.8316 29.0118C11.0912 29.9726 10.8046 31.2347 10.8046 32.634H13.1814C13.1814 31.5202 13.4148 30.8512 13.7142 30.4626L11.8316 29.0118ZM23.19 27.4997L24.3773 27.4473L24.3271 26.3113H23.19V27.4997ZM23.2457 28.7623L22.0585 28.8147L22.1985 31.9896L24.176 29.5018L23.2457 28.7623ZM29.4663 30.9071H30.6547L30.6546 30.8978L29.4663 30.9071ZM29.4663 37.5454V38.7338H30.6547V37.5454H29.4663ZM27.7487 37.5454H26.5603V38.7338H27.7487V37.5454ZM27.7487 30.8978H28.9371L28.937 30.8876L27.7487 30.8978ZM27.2473 29.2916L26.3764 30.1003L26.3842 30.1085L27.2473 29.2916ZM23.2829 30.3871L22.2145 29.8666L22.0944 30.113V30.3871H23.2829ZM23.2829 37.5454V38.7338H24.4713V37.5454H23.2829ZM21.5652 37.5454H20.3768V38.7338H21.5652V37.5454ZM21.5652 27.4997V26.3113H20.3768V27.4997H21.5652ZM22.0028 27.552L22.0585 28.8147L24.433 28.71L24.3773 27.4473L22.0028 27.552ZM24.176 29.5018C24.7171 28.8211 25.3767 28.5024 26.2539 28.5024V26.1256C24.6552 26.1256 23.3093 26.7725 22.3154 28.0229L24.176 29.5018ZM26.2539 28.5024C27.0919 28.5024 27.5199 28.7321 27.7633 29.0043C28.0305 29.3032 28.2698 29.8696 28.2779 30.9163L30.6546 30.8978C30.6442 29.5491 30.3388 28.319 29.5352 27.4202C28.7078 26.4947 27.5389 26.1256 26.2539 26.1256V28.5024ZM28.2779 30.9071V37.5454H30.6547V30.9071H28.2779ZM29.4663 36.357H27.7487V38.7338H29.4663V36.357ZM28.9371 37.5454V30.8978H26.5603V37.5454H28.9371ZM28.937 30.8876C28.9296 30.0143 28.7296 29.1288 28.1104 28.4747L26.3842 30.1085C26.4211 30.1475 26.5554 30.3328 26.5603 30.9079L28.937 30.8876ZM28.1182 28.4829C27.4858 27.8019 26.6 27.5832 25.7339 27.5832V29.96C26.2419 29.96 26.3651 30.088 26.3764 30.1002L28.1182 28.4829ZM25.7339 27.5832C24.9525 27.5832 24.2196 27.7961 23.5817 28.2464L24.9523 30.1882C25.1562 30.0443 25.4013 29.96 25.7339 29.96V27.5832ZM23.5817 28.2464C22.9901 28.6639 22.5335 29.2118 22.2145 29.8666L24.3512 30.9076C24.5026 30.5969 24.7021 30.3648 24.9523 30.1882L23.5817 28.2464ZM22.0944 30.3871V37.5454H24.4713V30.3871H22.0944ZM23.2829 36.357H21.5652V38.7338H23.2829V36.357ZM22.7536 37.5454V27.4997H20.3768V37.5454H22.7536ZM21.5652 28.6881H23.19V26.3113H21.5652V28.6881ZM33.9228 37.5454V38.7338H35.1112V37.5454H33.9228ZM32.2052 37.5454H31.0168V38.7338H32.2052V37.5454ZM32.2052 23.2845V22.0961H31.0168V23.2845H32.2052ZM33.9228 23.2845H35.1112V22.0961H33.9228V23.2845ZM33.9228 36.357H32.2052V38.7338H33.9228V36.357ZM33.3936 37.5454V23.2845H31.0168V37.5454H33.3936ZM32.2052 24.4729H33.9228V22.0961H32.2052V24.4729ZM32.7344 23.2845V37.5454H35.1112V23.2845H32.7344ZM38.5464 37.5454V38.7338H39.7348V37.5454H38.5464ZM36.8288 37.5454H35.6404V38.7338H36.8288V37.5454ZM36.8288 27.4997V26.3113H35.6404V27.4997H36.8288ZM38.5464 27.4997H39.7348V26.3113H38.5464V27.4997ZM36.9402 24.1294L36.0583 23.3329L36.0511 23.3408L36.0441 23.3489L36.9402 24.1294ZM36.9402 25.5314L36.0569 26.3264L36.0641 26.3344L36.0714 26.3422L36.9402 25.5314ZM38.5464 36.357H36.8288V38.7338H38.5464V36.357ZM38.0172 37.5454V27.4997H35.6404V37.5454H38.0172ZM36.8288 28.6881H38.5464V26.3113H36.8288V28.6881ZM37.358 27.4997V37.5454H39.7348V27.4997H37.358ZM37.878 24.835C37.878 24.8157 37.8806 24.8235 37.8721 24.8476C37.868 24.859 37.8624 24.8711 37.8555 24.883C37.8485 24.8949 37.8416 24.9039 37.8364 24.9099L36.0441 23.3489C35.6701 23.7782 35.5012 24.2988 35.5012 24.835H37.878ZM37.8222 24.926C37.8011 24.9493 37.7764 24.9709 37.7495 24.989C37.7227 25.007 37.6987 25.0184 37.6808 25.0252C37.6463 25.0382 37.6458 25.03 37.7016 25.03V22.6532C37.1356 22.6532 36.5186 22.8233 36.0583 23.3329L37.8222 24.926ZM37.7016 25.03C37.7573 25.03 37.7569 25.0382 37.7223 25.0252C37.7045 25.0184 37.6804 25.007 37.6537 24.989C37.6267 24.9709 37.602 24.9493 37.581 24.926L39.3448 23.3329C38.8846 22.8233 38.2675 22.6532 37.7016 22.6532V25.03ZM37.581 24.926C37.5761 24.9206 37.569 24.9117 37.5615 24.8994C37.5539 24.8869 37.5476 24.8737 37.5427 24.8606C37.5325 24.8328 37.5344 24.8205 37.5344 24.835H39.9113C39.9113 24.2869 39.7314 23.7608 39.3448 23.3329L37.581 24.926ZM37.5344 24.835C37.5344 24.8499 37.5324 24.8347 37.5445 24.8024C37.5573 24.7681 37.5768 24.7391 37.5941 24.7205L39.3317 26.3422C39.731 25.9144 39.9113 25.383 39.9113 24.835H37.5344ZM37.5941 24.7205C37.6165 24.6965 37.6419 24.6752 37.6686 24.6578C37.6951 24.6406 37.7181 24.6301 37.7343 24.6242C37.765 24.613 37.7612 24.6215 37.7016 24.6215V26.9983C38.256 26.9983 38.8686 26.8384 39.3317 26.3422L37.5941 24.7205ZM37.7016 24.6215C37.6419 24.6215 37.6381 24.613 37.6689 24.6242C37.685 24.6301 37.708 24.6406 37.7345 24.6578C37.7612 24.6752 37.7866 24.6965 37.809 24.7205L36.0714 26.3422C36.5345 26.8384 37.1471 26.9983 37.7016 26.9983V24.6215ZM37.8236 24.7364C37.8416 24.7564 37.8594 24.7849 37.8704 24.8155C37.8807 24.8441 37.878 24.8546 37.878 24.835H35.5012C35.5012 25.3708 35.6704 25.8969 36.0569 26.3264L37.8236 24.7364ZM42.9287 27.4997L44.1159 27.4473L44.0658 26.3113H42.9287V27.4997ZM42.9844 28.7623L41.7971 28.8147L41.9372 31.9896L43.9147 29.5018L42.9844 28.7623ZM49.205 30.9071H50.3934L50.3933 30.8978L49.205 30.9071ZM49.205 37.5454V38.7338H50.3934V37.5454H49.205ZM47.4873 37.5454H46.2989V38.7338H47.4873V37.5454ZM47.4873 30.8978H48.6758L48.6757 30.8876L47.4873 30.8978ZM46.986 29.2916L46.1151 30.1003L46.1228 30.1085L46.986 29.2916ZM43.0215 30.3871L41.9532 29.8666L41.8331 30.113V30.3871H43.0215ZM43.0215 37.5454V38.7338H44.2099V37.5454H43.0215ZM41.3039 37.5454H40.1155V38.7338H41.3039V37.5454ZM41.3039 27.4997V26.3113H40.1155V27.4997H41.3039ZM41.7414 27.552L41.7971 28.8147L44.1716 28.71L44.1159 27.4473L41.7414 27.552ZM43.9147 29.5018C44.4558 28.8211 45.1154 28.5024 45.9925 28.5024V26.1256C44.3938 26.1256 43.048 26.7725 42.0541 28.0229L43.9147 29.5018ZM45.9925 28.5024C46.8306 28.5024 47.2586 28.7321 47.502 29.0043C47.7692 29.3032 48.0085 29.8696 48.0166 30.9163L50.3933 30.8978C50.3829 29.5491 50.0774 28.319 49.2739 27.4202C48.4464 26.4947 47.2776 26.1256 45.9925 26.1256V28.5024ZM48.0166 30.9071V37.5454H50.3934V30.9071H48.0166ZM49.205 36.357H47.4873V38.7338H49.205V36.357ZM48.6757 37.5454V30.8978H46.2989V37.5454H48.6757ZM48.6757 30.8876C48.6682 30.0143 48.4682 29.1288 47.8491 28.4747L46.1228 30.1085C46.1598 30.1475 46.2941 30.3328 46.299 30.9079L48.6757 30.8876ZM47.8568 28.4829C47.2245 27.8019 46.3387 27.5832 45.4726 27.5832V29.96C45.9806 29.96 46.1038 30.088 46.1151 30.1002L47.8568 28.4829ZM45.4726 27.5832C44.6911 27.5832 43.9583 27.7961 43.3203 28.2464L44.691 30.1882C44.8949 30.0443 45.14 29.96 45.4726 29.96V27.5832ZM43.3203 28.2464C42.7288 28.6639 42.2722 29.2118 41.9532 29.8666L44.0899 30.9076C44.2413 30.5969 44.4408 30.3648 44.691 30.1882L43.3203 28.2464ZM41.8331 30.3871V37.5454H44.2099V30.3871H41.8331ZM43.0215 36.357H41.3039V38.7338H43.0215V36.357ZM42.4923 37.5454V27.4997H40.1155V37.5454H42.4923ZM41.3039 28.6881H42.9287V26.3113H41.3039V28.6881ZM52.6402 36.3941L51.7793 37.2134L51.7822 37.2164L52.6402 36.3941ZM51.9253 29.8208L50.8573 29.2994L50.8556 29.3029L51.9253 29.8208ZM53.5222 27.9825L54.1667 28.9809L54.1689 28.9795L53.5222 27.9825ZM58.7958 28.6045L57.8866 29.3698L58.7958 28.6045ZM59.882 33.0146V34.203H61.0704V33.0146H59.882ZM53.0766 33.0146V31.8262H51.8581L51.8885 33.0443L53.0766 33.0146ZM53.94 35.4193L53.0562 36.2138L53.0647 36.2231L53.94 35.4193ZM58.7029 34.9736L59.4331 34.036L58.4919 33.3031L57.7626 34.247L58.7029 34.9736ZM59.7521 35.7907L60.7481 36.4388L61.3436 35.5238L60.4822 34.853L59.7521 35.7907ZM54.005 29.4865L54.8717 30.2997L54.8766 30.2944L54.005 29.4865ZM53.1323 31.6034L51.9527 31.4589L51.7895 32.7918H53.1323V31.6034ZM58.1644 31.6034V32.7918H59.3528V31.6034H58.1644ZM58.1644 31.4734H59.3528V31.4397L59.3509 31.4061L58.1644 31.4734ZM57.4588 29.4494L56.563 30.2304L56.568 30.2361L57.4588 29.4494ZM55.964 36.5427C54.8894 36.5427 54.1039 36.2039 53.4982 35.5719L51.7822 37.2164C52.8848 38.367 54.3152 38.9195 55.964 38.9195V36.5427ZM53.501 35.5748C52.8995 34.9428 52.5473 34.0615 52.5473 32.8011H50.1705C50.1705 34.5364 50.6725 36.0505 51.7793 37.2134L53.501 35.5748ZM52.5473 32.8011V32.4854H50.1705V32.8011H52.5473ZM52.5473 32.4854C52.5473 31.6413 52.7065 30.9345 52.9949 30.3386L50.8556 29.3029C50.389 30.2669 50.1705 31.3364 50.1705 32.4854H52.5473ZM52.9932 30.3421C53.2898 29.7347 53.6823 29.2936 54.1667 28.9809L52.8777 26.984C52.0004 27.5502 51.3283 28.3347 50.8574 29.2994L52.9932 30.3421ZM54.1689 28.9795C54.6686 28.6554 55.1877 28.5024 55.7505 28.5024V26.1256C54.7163 26.1256 53.7499 26.4183 52.8755 26.9854L54.1689 28.9795ZM55.7505 28.5024C56.7688 28.5024 57.4258 28.8224 57.8866 29.3698L59.705 27.8392C58.7174 26.6659 57.3442 26.1256 55.7505 26.1256V28.5024ZM57.8866 29.3698C58.3671 29.9407 58.6936 30.8594 58.6936 32.2997H61.0704C61.0704 30.5338 60.6728 28.989 59.705 27.8392L57.8866 29.3698ZM58.6936 32.2997V33.0146H61.0704V32.2997H58.6936ZM59.882 31.8262H53.0766V34.203H59.882V31.8262ZM51.8885 33.0443C51.9189 34.2579 52.2796 35.3499 53.0562 36.2138L54.8238 34.6248C54.4987 34.2632 54.2838 33.7521 54.2646 32.9849L51.8885 33.0443ZM53.0647 36.2231C53.8561 37.0849 54.8839 37.5176 56.0569 37.5176V35.1407C55.5214 35.1407 55.138 34.9668 54.8153 34.6154L53.0647 36.2231ZM56.0569 37.5176C56.8244 37.5176 57.5577 37.3603 58.2006 36.9821L56.9955 34.9334C56.7966 35.0504 56.5024 35.1407 56.0569 35.1407V37.5176ZM58.2006 36.9821C58.7594 36.6534 59.2404 36.2217 59.6433 35.7003L57.7626 34.247C57.5341 34.5426 57.2785 34.767 56.9955 34.9334L58.2006 36.9821ZM57.9727 35.9113L59.0219 36.7283L60.4822 34.853L59.4331 34.036L57.9727 35.9113ZM58.756 35.1425C58.1561 36.0643 57.2889 36.5427 55.964 36.5427V38.9195C58.0062 38.9195 59.6644 38.1042 60.7481 36.4388L58.756 35.1425ZM55.7505 27.5368C54.7271 27.5368 53.8291 27.928 53.1334 28.6787L54.8766 30.2944C55.1217 30.03 55.3874 29.9136 55.7505 29.9136V27.5368ZM53.1383 28.6734C52.4459 29.4114 52.0846 30.3813 51.9527 31.4589L54.3119 31.7478C54.4027 31.0057 54.6233 30.5644 54.8717 30.2997L53.1383 28.6734ZM53.1323 32.7918H58.1644V30.415H53.1323V32.7918ZM59.3528 31.6034V31.4734H56.976V31.6034H59.3528ZM59.3509 31.4061C59.2919 30.3657 59.0027 29.4023 58.3496 28.6627L56.568 30.2361C56.7567 30.4497 56.9379 30.8356 56.9779 31.5407L59.3509 31.4061ZM58.3546 28.6685C57.6792 27.8937 56.7655 27.5368 55.7505 27.5368V29.9136C56.1715 29.9136 56.3966 30.0395 56.563 30.2303L58.3546 28.6685Z" fill="white"/>
</svg>
